<svg width="56" height="17" viewBox="0 0 56 17" fill="none" xmlns="http://www.w3.org/2000/svg">
<path d="M16.432 16H20.512V0.399999H14.896L10.504 10.24H10.096L5.728 0.399999H0.04V16H4.12V6.592H4.456L8.656 16H11.968L16.096 6.592H16.432V16ZM37.8745 9.232H35.3785V0.399999H31.7785L22.8985 9.472V12.544H31.2985V16H35.3785V12.544H37.3945L37.8745 9.232ZM27.1465 9.232L31.2985 5.32V9.232H27.1465ZM47.7406 16.288C52.5166 16.288 55.2766 13.768 55.2766 8.656V0.399999H51.1966V8.992C51.1966 11.272 50.0686 12.4 47.7406 12.496C45.4126 12.4 44.2846 11.272 44.2846 8.992V0.399999H40.2046V8.656C40.2046 13.768 42.9646 16.288 47.7406 16.288Z" fill="white"/>
</svg>
