<svg width="20" height="20" viewBox="0 0 20 20" fill="none" xmlns="http://www.w3.org/2000/svg">
<path d="M17.7708 7.75602C17.1391 7.75602 16.5833 8.02185 16.1741 8.43602C14.67 7.37935 12.6416 6.69935 10.3941 6.62685L11.5616 1.28852L15.2791 2.13518C15.2791 3.05852 16.0208 3.81268 16.9308 3.81268C17.8583 3.81268 18.6041 3.03852 18.6041 2.11435C18.6041 1.19018 17.8633 0.416016 16.9316 0.416016C16.2825 0.416016 15.7225 0.813516 15.4433 1.35685L11.3375 0.433516C11.1308 0.377682 10.9283 0.527682 10.8733 0.737682L9.59164 6.62268C7.36164 6.71685 5.35497 7.39602 3.8458 8.45352C3.43664 8.02185 2.85914 7.75602 2.22747 7.75602C-0.115865 7.75602 -0.883365 10.9468 1.26247 12.0377C1.18664 12.3752 1.15247 12.7352 1.15247 13.0943C1.15247 16.6785 5.13164 19.5827 10.0175 19.5827C14.9241 19.5827 18.9033 16.6785 18.9033 13.0943C18.9033 12.7352 18.8658 12.3585 18.7733 12.0202C20.8758 10.9252 20.1016 7.75768 17.7708 7.75602ZM4.66747 12.2643C4.66747 11.3235 5.40914 10.566 6.3408 10.566C7.2508 10.566 7.9933 11.3185 7.9933 12.2643C7.9933 13.1885 7.25164 13.9418 6.3408 13.9418C5.4133 13.946 4.66747 13.1885 4.66747 12.2643ZM13.7 16.2627C12.1658 17.8193 7.83664 17.8193 6.30164 16.2627C6.13247 16.1127 6.13247 15.8477 6.30164 15.6768C6.44914 15.5268 6.7108 15.5268 6.8583 15.6768C8.02997 16.896 11.9166 16.9168 13.1391 15.6768C13.2866 15.5268 13.5483 15.5268 13.6958 15.6768C13.8683 15.8485 13.8683 16.1135 13.7 16.2627ZM13.6658 13.9452C12.7558 13.9452 12.0141 13.1927 12.0141 12.2693C12.0141 11.3285 12.7558 10.571 13.6658 10.571C14.5933 10.571 15.3391 11.3235 15.3391 12.2693C15.335 13.1885 14.5933 13.9452 13.6658 13.9452Z" fill="white"/>
</svg>
